<svg width="55" height="55" viewBox="0 0 55 55" fill="none" xmlns="http://www.w3.org/2000/svg">
<rect width="55" height="55" rx="20" fill="#E7EDFF"/>
<path d="M34.2647 12.4827L34.8584 14.3096C35.0427 14.8654 35.3546 15.3705 35.769 15.7842C36.1835 16.198 36.689 16.5091 37.2452 16.6926L39.0724 17.2862L39.1082 17.2964C39.2492 17.346 39.3712 17.4381 39.4576 17.56C39.5439 17.6819 39.5903 17.8276 39.5903 17.977C39.5903 18.1264 39.5439 18.2721 39.4576 18.394C39.3712 18.5159 39.2492 18.608 39.1082 18.6576L37.281 19.2512C36.7248 19.4347 36.2193 19.7458 35.8048 20.1596C35.3904 20.5734 35.0785 21.0784 34.8942 21.6342L34.3005 23.4594C34.2509 23.6003 34.1588 23.7224 34.0369 23.8087C33.9149 23.895 33.7692 23.9414 33.6198 23.9414C33.4704 23.9414 33.3247 23.895 33.2028 23.8087C33.0808 23.7224 32.9887 23.6003 32.9391 23.4594L32.3437 21.6342C32.1608 21.0771 31.85 20.5706 31.436 20.1553C31.0219 19.7392 30.5158 19.426 29.9586 19.241L28.1314 18.6474C27.9905 18.5978 27.8684 18.5057 27.7821 18.3838C27.6957 18.2619 27.6493 18.1162 27.6493 17.9668C27.6493 17.8174 27.6957 17.6717 27.7821 17.5498C27.8684 17.4279 27.9905 17.3358 28.1314 17.2862L29.9586 16.6926C30.5079 16.5041 31.0059 16.1908 31.4136 15.7773C31.8212 15.3639 32.1273 14.8614 32.3078 14.3096L32.9016 12.4844C32.9508 12.3429 33.0429 12.2202 33.165 12.1334C33.2872 12.0466 33.4333 12 33.5831 12C33.733 12 33.8791 12.0466 34.0012 12.1334C34.1234 12.2202 34.2155 12.3412 34.2647 12.4827ZM42.633 26.013L41.3261 25.5899C40.9296 25.4574 40.5693 25.2344 40.2738 24.9387C39.9783 24.6429 39.7557 24.2825 39.6235 23.8859L39.197 22.5826C39.1616 22.4819 39.0959 22.3946 39.0088 22.3328C38.9217 22.2711 38.8175 22.2379 38.7107 22.2379C38.6039 22.2379 38.4998 22.2711 38.4127 22.3328C38.3256 22.3946 38.2598 22.4819 38.2245 22.5826L37.8014 23.8859C37.6716 24.2799 37.4526 24.6387 37.1614 24.9343C36.8703 25.2299 36.5147 25.4543 36.1226 25.5899L34.8175 26.013C34.7175 26.0491 34.631 26.1151 34.5699 26.2021C34.5088 26.2891 34.4761 26.3928 34.4761 26.4991C34.4761 26.6054 34.5088 26.7091 34.5699 26.7961C34.631 26.8831 34.7175 26.9492 34.8175 26.9853L36.1226 27.41C36.5203 27.5426 36.8817 27.7662 37.1778 28.0629C37.474 28.3596 37.6968 28.7213 37.8287 29.1192L38.2518 30.4224C38.2871 30.5232 38.3529 30.6105 38.44 30.6722C38.5271 30.734 38.6312 30.7672 38.738 30.7672C38.8448 30.7672 38.949 30.734 39.0361 30.6722C39.1232 30.6105 39.1889 30.5232 39.2243 30.4224L39.6491 29.1192C39.7814 28.7224 40.0043 28.3619 40.3001 28.0661C40.596 27.7703 40.9566 27.5475 41.3534 27.4151L42.6586 26.9921C42.7586 26.956 42.845 26.89 42.9061 26.803C42.9672 26.716 43 26.6122 43 26.5059C43 26.3996 42.9672 26.2959 42.9061 26.2089C42.845 26.1219 42.7586 26.0559 42.6586 26.0198L42.633 26.013ZM19.9712 29.0595C19.745 29.0595 19.528 28.9696 19.3681 28.8097C19.2081 28.6498 19.1182 28.4328 19.1182 28.2066C19.1182 27.9804 19.2081 27.7635 19.3681 27.6035C19.528 27.4436 19.745 27.3537 19.9712 27.3537C20.1975 27.3537 20.4145 27.4436 20.5744 27.6035C20.7344 27.7635 20.8243 27.9804 20.8243 28.2066C20.8243 28.4328 20.7344 28.6498 20.5744 28.8097C20.4145 28.9696 20.1975 29.0595 19.9712 29.0595ZM20.8243 35.0298C20.8243 35.256 20.7344 35.4729 20.5744 35.6328C20.4145 35.7928 20.1975 35.8826 19.9712 35.8826C19.745 35.8826 19.528 35.7928 19.3681 35.6328C19.2081 35.4729 19.1182 35.256 19.1182 35.0298C19.1182 34.8036 19.2081 34.5866 19.3681 34.4267C19.528 34.2667 19.745 34.1769 19.9712 34.1769C20.1975 34.1769 20.4145 34.2667 20.5744 34.4267C20.7344 34.5866 20.8243 34.8036 20.8243 35.0298ZM19.1182 17.119H26.1216C26.0136 17.391 25.953 17.6795 25.9425 17.9719C25.9485 18.4844 26.1168 18.9817 26.4234 19.3925C26.7299 19.8032 27.1589 20.1061 27.6486 20.2577L28.4828 20.5306H18.2652C18.0389 20.5306 17.822 20.6204 17.662 20.7804C17.502 20.9403 17.4121 21.1573 17.4121 21.3835C17.4121 21.6097 17.502 21.8266 17.662 21.9866C17.822 22.1465 18.0389 22.2364 18.2652 22.2364H30.7758L31.3166 23.9422C31.4702 24.3822 31.7431 24.7712 32.1014 25.068C32.3289 25.2363 32.5791 25.3557 32.8521 25.4262C32.7357 25.7719 32.7064 26.1411 32.7668 26.5008C32.7662 26.7935 32.8236 27.0834 32.9357 27.3537H25.0895C24.8632 27.3537 24.6462 27.4436 24.4863 27.6035C24.3263 27.7635 24.2364 27.9804 24.2364 28.2066C24.2364 28.4328 24.3263 28.6498 24.4863 28.8097C24.6462 28.9696 24.8632 29.0595 25.0895 29.0595H33.6198C33.7696 29.0595 33.9166 29.0201 34.0463 28.9452C34.176 28.8704 34.2837 28.7627 34.3585 28.6331L35.5989 29.0254C35.7376 29.0822 35.8627 29.1619 35.9742 29.2642C36.0825 29.3752 36.1642 29.5094 36.213 29.6565L36.6225 30.9529C36.7286 31.2525 36.8955 31.5268 37.1127 31.7588C37.33 31.9907 37.593 32.1751 37.885 32.3005V35.8826C37.885 37.2399 37.3458 38.5415 36.3859 39.5012C35.4261 40.4609 34.1242 41 32.7668 41H19.1182C17.7608 41 16.4589 40.4609 15.4991 39.5012C14.5392 38.5415 14 37.2399 14 35.8826V22.2364C14 20.8792 14.5392 19.5775 15.4991 18.6179C16.4589 17.6582 17.7608 17.119 19.1182 17.119ZM19.9712 30.7653C20.65 30.7653 21.3009 30.4957 21.7808 30.0159C22.2607 29.536 22.5304 28.8852 22.5304 28.2066C22.5304 27.528 22.2607 26.8772 21.7808 26.3974C21.3009 25.9175 20.65 25.6479 19.9712 25.6479C19.2925 25.6479 18.6416 25.9175 18.1617 26.3974C17.6818 26.8772 17.4121 27.528 17.4121 28.2066C17.4121 28.8852 17.6818 29.536 18.1617 30.0159C18.6416 30.4957 19.2925 30.7653 19.9712 30.7653ZM22.5304 35.0298C22.5304 34.3511 22.2607 33.7003 21.7808 33.2205C21.3009 32.7406 20.65 32.4711 19.9712 32.4711C19.2925 32.4711 18.6416 32.7406 18.1617 33.2205C17.6818 33.7003 17.4121 34.3511 17.4121 35.0298C17.4121 35.7084 17.6818 36.3592 18.1617 36.839C18.6416 37.3189 19.2925 37.5884 19.9712 37.5884C20.65 37.5884 21.3009 37.3189 21.7808 36.839C22.2607 36.3592 22.5304 35.7084 22.5304 35.0298ZM25.0895 34.1769C24.8632 34.1769 24.6462 34.2667 24.4863 34.4267C24.3263 34.5866 24.2364 34.8036 24.2364 35.0298C24.2364 35.256 24.3263 35.4729 24.4863 35.6328C24.6462 35.7928 24.8632 35.8826 25.0895 35.8826H33.6198C33.8461 35.8826 34.063 35.7928 34.223 35.6328C34.383 35.4729 34.4729 35.256 34.4729 35.0298C34.4729 34.8036 34.383 34.5866 34.223 34.4267C34.063 34.2667 33.8461 34.1769 33.6198 34.1769H25.0895Z" fill="#396AFF"/>
</svg>
