<svg width="55" height="55" viewBox="0 0 55 55" fill="none" xmlns="http://www.w3.org/2000/svg">
<rect width="55" height="55" rx="20" fill="#396AFF"/>
<path fill-rule="evenodd" clip-rule="evenodd" d="M32.3112 8.79167C32.3112 8.66458 32.2607 8.54271 32.1709 8.45284C32.081 8.36298 31.9591 8.3125 31.832 8.3125H18.4154C17.0175 8.3125 15.6768 8.86782 14.6883 9.85629C13.6998 10.8448 13.1445 12.1854 13.1445 13.5833V40.4167C13.1445 41.8146 13.6998 43.1552 14.6883 44.1437C15.6768 45.1322 17.0175 45.6875 18.4154 45.6875H37.582C38.9799 45.6875 40.3206 45.1322 41.3091 44.1437C42.2975 43.1552 42.8529 41.8146 42.8529 40.4167V21.5318C42.8529 21.4047 42.8024 21.2828 42.7125 21.1929C42.6227 21.1031 42.5008 21.0526 42.3737 21.0526H33.7487C33.3675 21.0526 33.0018 20.9011 32.7322 20.6315C32.4626 20.362 32.3112 19.9963 32.3112 19.6151V8.79167ZM33.7487 27.4792C34.1299 27.4792 34.4956 27.6306 34.7652 27.9002C35.0347 28.1698 35.1862 28.5354 35.1862 28.9167C35.1862 29.2979 35.0347 29.6635 34.7652 29.9331C34.4956 30.2027 34.1299 30.3542 33.7487 30.3542H22.2487C21.8674 30.3542 21.5018 30.2027 21.2322 29.9331C20.9626 29.6635 20.8112 29.2979 20.8112 28.9167C20.8112 28.5354 20.9626 28.1698 21.2322 27.9002C21.5018 27.6306 21.8674 27.4792 22.2487 27.4792H33.7487ZM33.7487 35.1458C34.1299 35.1458 34.4956 35.2973 34.7652 35.5669C35.0347 35.8364 35.1862 36.2021 35.1862 36.5833C35.1862 36.9646 35.0347 37.3302 34.7652 37.5998C34.4956 37.8694 34.1299 38.0208 33.7487 38.0208H22.2487C21.8674 38.0208 21.5018 37.8694 21.2322 37.5998C20.9626 37.3302 20.8112 36.9646 20.8112 36.5833C20.8112 36.2021 20.9626 35.8364 21.2322 35.5669C21.5018 35.2973 21.8674 35.1458 22.2487 35.1458H33.7487Z" fill="#E7EDFF"/>
<path d="M35.1875 9.41279C35.1875 9.06012 35.5574 8.83587 35.8315 9.05629C36.0641 9.24412 36.2704 9.46262 36.4506 9.71179L42.2255 17.756C42.3558 17.94 42.214 18.1777 41.9878 18.1777H35.6667C35.5396 18.1777 35.4177 18.1272 35.3278 18.0374C35.238 17.9475 35.1875 17.8256 35.1875 17.6985V9.41279Z" fill="#E7EDFF"/>
</svg>
