<svg width="55" height="55" viewBox="0 0 55 55" fill="none" xmlns="http://www.w3.org/2000/svg">
<rect width="55" height="55" rx="20" fill="#16DBCC" fill-opacity="0.28"/>
<path d="M13.8359 19.8138V12.1263C13.8359 11.6732 14.0159 11.2387 14.3363 10.9183C14.6567 10.598 15.0912 10.418 15.5443 10.418H39.4609C39.914 10.418 40.3485 10.598 40.6689 10.9183C40.9893 11.2387 41.1693 11.6732 41.1693 12.1263V42.8763C41.1693 43.3294 40.9893 43.7639 40.6689 44.0843C40.3485 44.4047 39.914 44.5846 39.4609 44.5846H15.5443C15.0912 44.5846 14.6567 44.4047 14.3363 44.0843C14.0159 43.7639 13.8359 43.3294 13.8359 42.8763V35.1888" stroke="#22B2A8" stroke-width="2" stroke-linecap="round" stroke-linejoin="round"/>
<path d="M33.4805 19.8125H36.043M30.918 26.6458H36.043M30.918 33.4792H36.043" stroke="#22B2A8" stroke-width="2" stroke-linecap="round"/>
<path d="M15.543 24.9375L20.668 30.0625M20.668 24.9375L15.543 30.0625M10.418 19.8125H25.793V35.1875H10.418V19.8125Z" stroke="#22B2A8" stroke-width="2" stroke-linecap="round" stroke-linejoin="round"/>
</svg>
