<svg width="55" height="55" viewBox="0 0 55 55" fill="none" xmlns="http://www.w3.org/2000/svg">
<rect width="55" height="55" rx="20" fill="#FE5C73"/>
<path d="M41.06 21L30 9.94C29.719 9.65862 29.3377 9.50035 28.94 9.5H20C18.5413 9.5 17.1424 10.0795 16.1109 11.1109C15.0795 12.1424 14.5 13.5413 14.5 15V39C14.5 40.4587 15.0795 41.8576 16.1109 42.8891C17.1424 43.9205 18.5413 44.5 20 44.5H36C37.4587 44.5 38.8576 43.9205 39.8891 42.8891C40.9205 41.8576 41.5 40.4587 41.5 39V22C41.4843 21.6232 41.3272 21.2662 41.06 21ZM30.5 14.62L36.38 20.5H30.5V14.62ZM36 41.5H20C19.337 41.5 18.7011 41.2366 18.2322 40.7678C17.7634 40.2989 17.5 39.663 17.5 39V15C17.5 14.337 17.7634 13.7011 18.2322 13.2322C18.7011 12.7634 19.337 12.5 20 12.5H27.5V22C27.5052 22.3962 27.6649 22.7747 27.9451 23.0549C28.2253 23.3351 28.6038 23.4948 29 23.5H38.5V39C38.5 39.663 38.2366 40.2989 37.7678 40.7678C37.2989 41.2366 36.663 41.5 36 41.5Z" fill="#FFF6F8"/>
<path d="M30.979 32.6984C29.7492 31.9267 28.8237 30.7539 28.359 29.3784C28.7897 28.0916 28.9197 26.7232 28.739 25.3784C28.6814 25.0396 28.5161 24.7283 28.2678 24.4908C28.0195 24.2532 27.7012 24.1019 27.3602 24.0592C27.0192 24.0166 26.6735 24.0849 26.3743 24.2541C26.0751 24.4232 25.8383 24.6842 25.699 24.9984C25.4713 26.6152 25.643 28.2632 26.199 29.7984C25.4394 31.5729 24.5917 33.3084 23.659 34.9984C22.239 35.7984 20.299 36.9984 19.999 38.3784C19.759 39.4984 21.859 42.3784 25.439 36.1384C27.0317 35.5499 28.662 35.0688 30.319 34.6984C31.5439 35.4002 32.911 35.8172 34.319 35.9184C34.6423 35.9268 34.9608 35.8394 35.2345 35.6673C35.5083 35.4952 35.725 35.246 35.8575 34.951C35.99 34.6561 36.0324 34.3285 35.9793 34.0096C35.9262 33.6906 35.78 33.3945 35.559 33.1584C34.719 32.2984 32.219 32.5384 30.979 32.6984ZM21.419 38.6984C21.9787 37.7387 22.719 36.8965 23.599 36.2184C22.239 38.3784 21.419 38.7584 21.419 38.7184V38.6984ZM27.259 25.0784C27.779 25.0784 27.739 27.3784 27.379 27.9984C27.1102 27.0548 27.069 26.0609 27.259 25.0984V25.0784ZM25.519 34.8384C26.1952 33.6013 26.7833 32.3181 27.279 30.9984C27.8099 31.9836 28.5466 32.8431 29.439 33.5184C28.0973 33.8549 26.7861 34.3032 25.519 34.8584V34.8384ZM34.919 34.4784C34.919 34.4784 34.559 34.9184 32.259 33.9184C34.759 33.7584 35.179 34.3384 34.919 34.4984V34.4784Z" fill="#FFF6F8"/>
</svg>
