<svg width="55" height="55" viewBox="0 0 55 55" fill="none" xmlns="http://www.w3.org/2000/svg">
<rect width="55" height="55" rx="20" fill="#FFE0EB"/>
<path fill-rule="evenodd" clip-rule="evenodd" d="M24.1429 13C23.5745 13 23.0295 13.2212 22.6276 13.6151C22.2258 14.0089 22 14.543 22 15.1H19.1429C18.5745 15.1 18.0295 15.3212 17.6276 15.7151C17.2258 16.1089 17 16.643 17 17.2V38.9C17 39.457 17.2258 39.9911 17.6276 40.3849C18.0295 40.7787 18.5745 41 19.1429 41H34.8571C35.4255 41 35.9705 40.7787 36.3724 40.3849C36.7742 39.9911 37 39.457 37 38.9V17.2C37 16.643 36.7742 16.1089 36.3724 15.7151C35.9705 15.3212 35.4255 15.1 34.8571 15.1H32C32 14.543 31.7742 14.0089 31.3724 13.6151C30.9705 13.2212 30.4255 13 29.8571 13H24.1429ZM23.4286 15.1C23.4286 14.9143 23.5038 14.7363 23.6378 14.605C23.7717 14.4737 23.9534 14.4 24.1429 14.4H29.8571C30.0466 14.4 30.2283 14.4737 30.3622 14.605C30.4962 14.7363 30.5714 14.9143 30.5714 15.1V16.5C30.5714 16.6857 30.4962 16.8637 30.3622 16.995C30.2283 17.1263 30.0466 17.2 29.8571 17.2H24.1429C23.9534 17.2 23.7717 17.1263 23.6378 16.995C23.5038 16.8637 23.4286 16.6857 23.4286 16.5V15.1ZM21.2857 24.2C21.0963 24.2 20.9146 24.2737 20.7806 24.405C20.6467 24.5363 20.5714 24.7143 20.5714 24.9C20.5714 25.0857 20.6467 25.2637 20.7806 25.395C20.9146 25.5263 21.0963 25.6 21.2857 25.6H26.2857C26.4752 25.6 26.6568 25.5263 26.7908 25.395C26.9247 25.2637 27 25.0857 27 24.9C27 24.7143 26.9247 24.5363 26.7908 24.405C26.6568 24.2737 26.4752 24.2 26.2857 24.2H21.2857ZM20.5714 21.4C20.5714 21.2143 20.6467 21.0363 20.7806 20.905C20.9146 20.7737 21.0963 20.7 21.2857 20.7H32.3571C32.5466 20.7 32.7283 20.7737 32.8622 20.905C32.9962 21.0363 33.0714 21.2143 33.0714 21.4C33.0714 21.5857 32.9962 21.7637 32.8622 21.895C32.7283 22.0263 32.5466 22.1 32.3571 22.1H21.2857C21.0963 22.1 20.9146 22.0263 20.7806 21.895C20.6467 21.7637 20.5714 21.5857 20.5714 21.4ZM20.5714 29.8C20.5714 29.6143 20.6467 29.4363 20.7806 29.305C20.9146 29.1737 21.0963 29.1 21.2857 29.1H24.1429C24.3323 29.1 24.514 29.1737 24.6479 29.305C24.7819 29.4363 24.8571 29.6143 24.8571 29.8V32.6C24.8571 32.7857 24.7819 32.9637 24.6479 33.095C24.514 33.2263 24.3323 33.3 24.1429 33.3H21.2857C21.0963 33.3 20.9146 33.2263 20.7806 33.095C20.6467 32.9637 20.5714 32.7857 20.5714 32.6V29.8ZM29.8571 32.6C30.4255 32.6 30.9705 32.3788 31.3724 31.9849C31.7742 31.5911 32 31.057 32 30.5C32 29.943 31.7742 29.4089 31.3724 29.0151C30.9705 28.6212 30.4255 28.4 29.8571 28.4C29.2888 28.4 28.7438 28.6212 28.3419 29.0151C27.9401 29.4089 27.7143 29.943 27.7143 30.5C27.7143 31.057 27.9401 31.5911 28.3419 31.9849C28.7438 32.3788 29.2888 32.6 29.8571 32.6ZM25.5714 35.75C25.5714 34.2688 28.4264 33.5226 29.8571 33.5226C31.2879 33.5226 34.1429 34.2688 34.1429 35.75V37.5H25.5714V35.75Z" fill="#FF82AC"/>
</svg>
