<svg width="55" height="55" viewBox="0 0 55 55" fill="none" xmlns="http://www.w3.org/2000/svg">
<rect width="55" height="55" rx="20" fill="#DCFAF8"/>
<path d="M25.5735 12.5185L15.9265 18.0799L15.9236 18.0828C15.3384 18.424 14.8527 18.9133 14.5152 19.5017C14.1776 20.0901 14 20.757 14 21.4358V32.5631C13.9983 33.2425 14.1752 33.9103 14.5129 34.4992C14.8506 35.0882 15.3372 35.5774 15.9236 35.9176L15.928 35.9205L25.5721 41.4805H25.575C26.16 41.8208 26.8244 42 27.5007 42C28.1771 42 28.8414 41.8208 29.4265 41.4805H29.4279L39.0721 35.919H39.0764C39.6623 35.5775 40.1483 35.0875 40.4859 34.4983C40.8235 33.9091 41.0008 33.2412 41 32.5617V21.4388C41.0003 20.7597 40.8228 20.0925 40.4852 19.5038C40.1476 18.9151 39.6618 18.4256 39.0764 18.0843L29.4294 12.5228L29.4265 12.5199C28.8413 12.1794 28.1766 12 27.5 12C26.8234 12 26.1588 12.1779 25.5735 12.5185ZM22.027 20.4143C22.027 20.1232 22.1424 19.844 22.3476 19.6381C22.5529 19.4323 22.8313 19.3166 23.1216 19.3166H31.8784C32.1687 19.3166 32.4471 19.4323 32.6524 19.6381C32.8577 19.844 32.973 20.1232 32.973 20.4143C32.973 20.7054 32.8577 20.9846 32.6524 21.1904C32.4471 21.3963 32.1687 21.5119 31.8784 21.5119H29.2601C29.6075 22.0871 29.8366 22.7267 29.9548 23.3823H31.8784C32.1687 23.3823 32.4471 23.498 32.6524 23.7038C32.8577 23.9097 32.973 24.1889 32.973 24.48C32.973 24.7711 32.8577 25.0503 32.6524 25.2562C32.4471 25.462 32.1687 25.5776 31.8784 25.5776H29.9548C29.8056 26.4468 29.4441 27.2654 28.9025 27.9603C28.5127 28.4524 28.023 28.8557 27.4659 29.1436C26.9089 29.4315 26.2971 29.5973 25.6713 29.6302L30.1154 34.2916C30.3067 34.5036 30.4081 34.7821 30.3977 35.0679C30.3874 35.3537 30.2663 35.6242 30.0601 35.8218C29.854 36.0193 29.5791 36.1284 29.2939 36.1258C29.0087 36.1232 28.7358 36.0091 28.5333 35.8078L22.3306 29.3038C22.1826 29.1484 22.0833 28.9529 22.0451 28.7414C22.0069 28.5299 22.0315 28.3119 22.1157 28.1143C22.1999 27.9167 22.3401 27.7482 22.519 27.6298C22.6978 27.5114 22.9073 27.4482 23.1216 27.4481H25.3108C26.1865 27.4481 26.7878 27.0968 27.1935 26.589C27.4289 26.2887 27.6034 25.9451 27.7072 25.5776H23.1216C22.8313 25.5776 22.5529 25.462 22.3476 25.2562C22.1424 25.0503 22.027 24.7711 22.027 24.48C22.027 24.1889 22.1424 23.9097 22.3476 23.7038C22.5529 23.498 22.8313 23.3823 23.1216 23.3823H27.7072C27.6034 23.0149 27.4289 22.6713 27.1935 22.371C26.7878 21.8632 26.1865 21.5119 25.3108 21.5119H23.1216C22.8313 21.5119 22.5529 21.3963 22.3476 21.1904C22.1424 20.9846 22.027 20.7054 22.027 20.4143Z" fill="#16DBCC"/>
</svg>
