<svg width="28" height="25" viewBox="0 0 28 25" fill="none" xmlns="http://www.w3.org/2000/svg">
<g clip-path="url(#clip0_260_1589)">
<path fill-rule="evenodd" clip-rule="evenodd" d="M25.2222 8.06678H23.9401V5.58469C23.9401 4.90026 23.3651 4.34365 22.6581 4.34365H14.3247C14.1747 4.34365 14.0299 4.29277 13.9145 4.20031L10.2465 1.24104H2.78627C2.07922 1.24104 1.50422 1.79765 1.50422 2.48209V6.82574H25.2222V8.06678H1.50422H0.222168V2.48209C0.222168 1.11322 1.37217 0 2.78627 0H10.4786C10.6286 0 10.7734 0.0508828 10.8888 0.14334L14.5568 3.10261H22.6581C24.0722 3.10261 25.2222 4.21582 25.2222 5.58469V8.06678Z" fill="#4676FB"/>
<path d="M25.2222 8.06678H23.9401V5.58469C23.9401 4.90026 23.3651 4.34365 22.6581 4.34365H14.3247C14.1747 4.34365 14.0299 4.29277 13.9145 4.20031L10.2465 1.24104H2.78627C2.07922 1.24104 1.50422 1.79765 1.50422 2.48209V6.82574H25.2222V8.06678H1.50422H0.222168V2.48209C0.222168 1.11322 1.37217 0 2.78627 0H10.4786C10.6286 0 10.7735 0.0508828 10.8888 0.14334L14.5568 3.10261H22.6581C24.0722 3.10261 25.2222 4.21582 25.2222 5.58469V8.06678Z" stroke="white" stroke-width="0.2"/>
<rect x="0.222168" y="6" width="27" height="18" rx="2" fill="#E0EEFD" stroke="#ADC0F8"/>
</g>
<defs>
<clipPath id="clip0_260_1589">
<rect width="27" height="25" fill="white" transform="translate(0.222168)"/>
</clipPath>
</defs>
</svg>
